<mxfile host="65bd71144e">
    <diagram id="7cgQfnG6seCh2PDtBS4H" name="第 1 页">
        <mxGraphModel dx="1203" dy="1861" grid="1" gridSize="10" guides="1" tooltips="1" connect="1" arrows="1" fold="1" page="1" pageScale="1" pageWidth="827" pageHeight="1169" math="0" shadow="0">
            <root>
                <mxCell id="0"/>
                <mxCell id="1" parent="0"/>
                <mxCell id="112" value="" style="rounded=0;whiteSpace=wrap;html=1;" vertex="1" parent="1">
                    <mxGeometry x="245" y="-240" width="385" height="150" as="geometry"/>
                </mxCell>
                <mxCell id="79" value="" style="ellipse;whiteSpace=wrap;html=1;aspect=fixed;" vertex="1" parent="1">
                    <mxGeometry x="185" y="540" width="430" height="430" as="geometry"/>
                </mxCell>
                <mxCell id="3" style="edgeStyle=none;html=1;exitX=0;exitY=1;exitDx=0;exitDy=0;" parent="1" source="2" target="4" edge="1">
                    <mxGeometry relative="1" as="geometry">
                        <mxPoint x="270" y="160" as="targetPoint"/>
                    </mxGeometry>
                </mxCell>
                <mxCell id="6" style="edgeStyle=none;html=1;exitX=0.25;exitY=1;exitDx=0;exitDy=0;" parent="1" source="2" target="7" edge="1">
                    <mxGeometry relative="1" as="geometry">
                        <mxPoint x="370" y="180" as="targetPoint"/>
                    </mxGeometry>
                </mxCell>
                <mxCell id="8" style="edgeStyle=none;html=1;exitX=0.75;exitY=1;exitDx=0;exitDy=0;" parent="1" source="2" target="9" edge="1">
                    <mxGeometry relative="1" as="geometry">
                        <mxPoint x="460" y="190" as="targetPoint"/>
                    </mxGeometry>
                </mxCell>
                <mxCell id="10" style="edgeStyle=none;html=1;exitX=1;exitY=1;exitDx=0;exitDy=0;" parent="1" source="2" target="11" edge="1">
                    <mxGeometry relative="1" as="geometry">
                        <mxPoint x="680" y="190" as="targetPoint"/>
                    </mxGeometry>
                </mxCell>
                <mxCell id="104" style="edgeStyle=none;html=1;exitX=0.5;exitY=0;exitDx=0;exitDy=0;" edge="1" parent="1" source="2">
                    <mxGeometry relative="1" as="geometry">
                        <mxPoint x="414.42857142857156" y="-70" as="targetPoint"/>
                    </mxGeometry>
                </mxCell>
                <mxCell id="2" value="浏览器进程" style="rounded=1;whiteSpace=wrap;html=1;" parent="1" vertex="1">
                    <mxGeometry x="354" y="50" width="120" height="60" as="geometry"/>
                </mxCell>
                <mxCell id="4" value="Browser" style="rounded=1;whiteSpace=wrap;html=1;" parent="1" vertex="1">
                    <mxGeometry x="90" y="190" width="120" height="60" as="geometry"/>
                </mxCell>
                <mxCell id="7" value="第三方插件" style="rounded=1;whiteSpace=wrap;html=1;" parent="1" vertex="1">
                    <mxGeometry x="270" y="190" width="120" height="60" as="geometry"/>
                </mxCell>
                <mxCell id="9" value="GPU" style="rounded=1;whiteSpace=wrap;html=1;" parent="1" vertex="1">
                    <mxGeometry x="450" y="190" width="120" height="60" as="geometry"/>
                </mxCell>
                <mxCell id="32" value="" style="edgeStyle=none;html=1;" parent="1" source="11" edge="1">
                    <mxGeometry relative="1" as="geometry">
                        <mxPoint x="850" y="220" as="targetPoint"/>
                    </mxGeometry>
                </mxCell>
                <mxCell id="11" value="浏览器渲染" style="rounded=1;whiteSpace=wrap;html=1;" parent="1" vertex="1">
                    <mxGeometry x="630" y="190" width="120" height="60" as="geometry"/>
                </mxCell>
                <mxCell id="15" value="" style="rounded=0;whiteSpace=wrap;html=1;" parent="1" vertex="1">
                    <mxGeometry x="65" y="260" width="170" height="170" as="geometry"/>
                </mxCell>
                <mxCell id="18" value="1.负责浏览器的显示、用户交互（前进后退）" style="text;html=1;strokeColor=none;fillColor=none;align=center;verticalAlign=middle;whiteSpace=wrap;rounded=0;" parent="1" vertex="1">
                    <mxGeometry x="75" y="270" width="150" height="20" as="geometry"/>
                </mxCell>
                <mxCell id="19" value="2.负责页面的管理，创建和销毁其他进程" style="text;html=1;strokeColor=none;fillColor=none;align=center;verticalAlign=middle;whiteSpace=wrap;rounded=0;" parent="1" vertex="1">
                    <mxGeometry x="75" y="310" width="150" height="20" as="geometry"/>
                </mxCell>
                <mxCell id="20" value="3.将渲染进程得到的结果绘制到用户界面上" style="text;html=1;strokeColor=none;fillColor=none;align=center;verticalAlign=middle;whiteSpace=wrap;rounded=0;" parent="1" vertex="1">
                    <mxGeometry x="75" y="350" width="150" height="20" as="geometry"/>
                </mxCell>
                <mxCell id="21" value="4.网络资源的管理和下载" style="text;html=1;strokeColor=none;fillColor=none;align=center;verticalAlign=middle;whiteSpace=wrap;rounded=0;" parent="1" vertex="1">
                    <mxGeometry x="75" y="390" width="150" height="20" as="geometry"/>
                </mxCell>
                <mxCell id="22" value="" style="rounded=0;whiteSpace=wrap;html=1;" parent="1" vertex="1">
                    <mxGeometry x="245" y="260" width="170" height="170" as="geometry"/>
                </mxCell>
                <mxCell id="23" value="1.每个类型的插件对应一个进程，使用的时候才触发" style="text;html=1;strokeColor=none;fillColor=none;align=center;verticalAlign=middle;whiteSpace=wrap;rounded=0;" parent="1" vertex="1">
                    <mxGeometry x="255" y="270" width="150" height="20" as="geometry"/>
                </mxCell>
                <mxCell id="24" value="" style="rounded=0;whiteSpace=wrap;html=1;" parent="1" vertex="1">
                    <mxGeometry x="425" y="260" width="170" height="170" as="geometry"/>
                </mxCell>
                <mxCell id="25" value="1.只有一个，用于3D绘制、硬件加速" style="text;html=1;strokeColor=none;fillColor=none;align=center;verticalAlign=middle;whiteSpace=wrap;rounded=0;" parent="1" vertex="1">
                    <mxGeometry x="435" y="270" width="150" height="20" as="geometry"/>
                </mxCell>
                <mxCell id="26" value="" style="rounded=0;whiteSpace=wrap;html=1;" parent="1" vertex="1">
                    <mxGeometry x="605" y="260" width="170" height="170" as="geometry"/>
                </mxCell>
                <mxCell id="27" value="1.浏览器内核" style="text;html=1;strokeColor=none;fillColor=none;align=center;verticalAlign=middle;whiteSpace=wrap;rounded=0;" parent="1" vertex="1">
                    <mxGeometry x="615" y="270" width="150" height="20" as="geometry"/>
                </mxCell>
                <mxCell id="28" value="2.render进程，内部是多线程的" style="text;html=1;strokeColor=none;fillColor=none;align=center;verticalAlign=middle;whiteSpace=wrap;rounded=0;" parent="1" vertex="1">
                    <mxGeometry x="615" y="300" width="150" height="20" as="geometry"/>
                </mxCell>
                <mxCell id="29" value="3.一个tab一个进程，互不影响" style="text;html=1;strokeColor=none;fillColor=none;align=center;verticalAlign=middle;whiteSpace=wrap;rounded=0;" parent="1" vertex="1">
                    <mxGeometry x="615" y="335" width="150" height="20" as="geometry"/>
                </mxCell>
                <mxCell id="30" value="4.负责界面渲染、脚本执行、事件处理" style="text;html=1;strokeColor=none;fillColor=none;align=center;verticalAlign=middle;whiteSpace=wrap;rounded=0;" parent="1" vertex="1">
                    <mxGeometry x="615" y="370" width="150" height="20" as="geometry"/>
                </mxCell>
                <mxCell id="33" value="" style="shape=curlyBracket;whiteSpace=wrap;html=1;rounded=1;" parent="1" vertex="1">
                    <mxGeometry x="860" y="7.5" width="20" height="425" as="geometry"/>
                </mxCell>
                <mxCell id="35" value="线程" style="rounded=1;whiteSpace=wrap;html=1;" parent="1" vertex="1">
                    <mxGeometry x="775" y="190" width="60" height="20" as="geometry"/>
                </mxCell>
                <mxCell id="36" value="GUI渲染线程" style="rounded=1;whiteSpace=wrap;html=1;" parent="1" vertex="1">
                    <mxGeometry x="940" y="-40" width="120" height="60" as="geometry"/>
                </mxCell>
                <mxCell id="37" value="JS引擎线程" style="rounded=1;whiteSpace=wrap;html=1;" parent="1" vertex="1">
                    <mxGeometry x="940" y="70" width="120" height="60" as="geometry"/>
                </mxCell>
                <mxCell id="38" value="事件触发线程" style="rounded=1;whiteSpace=wrap;html=1;" parent="1" vertex="1">
                    <mxGeometry x="940" y="180" width="120" height="60" as="geometry"/>
                </mxCell>
                <mxCell id="39" value="定时触发器线程" style="rounded=1;whiteSpace=wrap;html=1;" parent="1" vertex="1">
                    <mxGeometry x="940" y="290" width="120" height="60" as="geometry"/>
                </mxCell>
                <mxCell id="41" value="异步http请求线程" style="rounded=1;whiteSpace=wrap;html=1;" parent="1" vertex="1">
                    <mxGeometry x="940" y="400" width="120" height="60" as="geometry"/>
                </mxCell>
                <mxCell id="42" value="" style="rounded=0;whiteSpace=wrap;html=1;" parent="1" vertex="1">
                    <mxGeometry x="1070" y="-60" width="660" height="90" as="geometry"/>
                </mxCell>
                <mxCell id="43" value="1.负责页面的渲染，解析HTML，CSS 构建 DOM 树，Render 树" style="text;html=1;strokeColor=none;fillColor=none;align=center;verticalAlign=middle;whiteSpace=wrap;rounded=0;" parent="1" vertex="1">
                    <mxGeometry x="1070" y="-60" width="370" height="30" as="geometry"/>
                </mxCell>
                <mxCell id="44" value="3.GUI线程和JS线程是互斥的，当JS线程执行的时候GUI线程会被挂起并保存在一个队列中，等待JS执行结束后立即执行" style="text;html=1;strokeColor=none;fillColor=none;align=center;verticalAlign=middle;whiteSpace=wrap;rounded=0;" parent="1" vertex="1">
                    <mxGeometry x="1070" width="660" height="30" as="geometry"/>
                </mxCell>
                <mxCell id="47" value="2.页面回流或者重绘的时候该线程会执行" style="text;html=1;strokeColor=none;fillColor=none;align=center;verticalAlign=middle;whiteSpace=wrap;rounded=0;" parent="1" vertex="1">
                    <mxGeometry x="1070" y="-30" width="240" height="30" as="geometry"/>
                </mxCell>
                <mxCell id="48" value="" style="rounded=0;whiteSpace=wrap;html=1;" parent="1" vertex="1">
                    <mxGeometry x="1070" y="60" width="660" height="100" as="geometry"/>
                </mxCell>
                <mxCell id="49" value="2.解析JavaScript脚本并加以执行" style="text;html=1;strokeColor=none;fillColor=none;align=center;verticalAlign=middle;whiteSpace=wrap;rounded=0;" parent="1" vertex="1">
                    <mxGeometry x="1070" y="85" width="190" height="30" as="geometry"/>
                </mxCell>
                <mxCell id="50" value="1.JS内核，负责处理JavaScript程序" style="text;html=1;strokeColor=none;fillColor=none;align=center;verticalAlign=middle;whiteSpace=wrap;rounded=0;" parent="1" vertex="1">
                    <mxGeometry x="1070" y="60" width="210" height="30" as="geometry"/>
                </mxCell>
                <mxCell id="51" value="3.JS线程一直在等待队列中的任务到来加以处理，同一时刻一个进程中只有一个js线程在执行" style="text;html=1;strokeColor=none;fillColor=none;align=center;verticalAlign=middle;whiteSpace=wrap;rounded=0;" parent="1" vertex="1">
                    <mxGeometry x="1070" y="110" width="510" height="30" as="geometry"/>
                </mxCell>
                <mxCell id="52" value="4.JS线程在执行过程中GUI线程会被挂起，渲染会停滞，所以js执行时间过长会导致页面卡顿" style="text;html=1;strokeColor=none;fillColor=none;align=center;verticalAlign=middle;whiteSpace=wrap;rounded=0;" parent="1" vertex="1">
                    <mxGeometry x="1070" y="130" width="510" height="30" as="geometry"/>
                </mxCell>
                <mxCell id="53" value="" style="rounded=0;whiteSpace=wrap;html=1;" parent="1" vertex="1">
                    <mxGeometry x="1070" y="170" width="660" height="100" as="geometry"/>
                </mxCell>
                <mxCell id="54" value="1.归属于浏览器而不属于js引擎线程" style="text;html=1;strokeColor=none;fillColor=none;align=center;verticalAlign=middle;whiteSpace=wrap;rounded=0;" parent="1" vertex="1">
                    <mxGeometry x="1080" y="170" width="190" height="30" as="geometry"/>
                </mxCell>
                <mxCell id="55" value="2.当js执行代码块setTimeout，鼠标事件，ajax等等时，会将事件放入事件线程" style="text;html=1;strokeColor=none;fillColor=none;align=center;verticalAlign=middle;whiteSpace=wrap;rounded=0;" parent="1" vertex="1">
                    <mxGeometry x="1080" y="195" width="420" height="30" as="geometry"/>
                </mxCell>
                <mxCell id="56" value="3.当对应的事件符合触发条件被触发的时候，事件线程会把该事件放入处理队列的队尾等待js引擎空闲的时候依次执行" style="text;html=1;strokeColor=none;fillColor=none;align=center;verticalAlign=middle;whiteSpace=wrap;rounded=0;" parent="1" vertex="1">
                    <mxGeometry x="1070" y="220" width="640" height="30" as="geometry"/>
                </mxCell>
                <mxCell id="57" value="4.由于js引擎是单线程的关系，这些事件必须等待js引擎空闲的时候才会依次执行" style="text;html=1;strokeColor=none;fillColor=none;align=center;verticalAlign=middle;whiteSpace=wrap;rounded=0;" parent="1" vertex="1">
                    <mxGeometry x="1070" y="240" width="450" height="30" as="geometry"/>
                </mxCell>
                <mxCell id="58" value="" style="rounded=0;whiteSpace=wrap;html=1;" parent="1" vertex="1">
                    <mxGeometry x="1070" y="280" width="660" height="100" as="geometry"/>
                </mxCell>
                <mxCell id="59" value="1.setTimeout 和setInterval 会触发的线程" style="text;html=1;strokeColor=none;fillColor=none;align=center;verticalAlign=middle;whiteSpace=wrap;rounded=0;" parent="1" vertex="1">
                    <mxGeometry x="1064" y="280" width="240" height="30" as="geometry"/>
                </mxCell>
                <mxCell id="60" value="2.定时器的计时不是由js线程计时的，js是单线程的如果js线程阻塞了会导致计时不准确" style="text;html=1;strokeColor=none;fillColor=none;align=center;verticalAlign=middle;whiteSpace=wrap;rounded=0;" parent="1" vertex="1">
                    <mxGeometry x="1070" y="305" width="470" height="30" as="geometry"/>
                </mxCell>
                <mxCell id="61" value="3.定时器线程计时，满足触发条件后会将事件放入处理队列末尾等待js线程处理" style="text;html=1;strokeColor=none;fillColor=none;align=center;verticalAlign=middle;whiteSpace=wrap;rounded=0;" parent="1" vertex="1">
                    <mxGeometry x="1050" y="330" width="470" height="30" as="geometry"/>
                </mxCell>
                <mxCell id="62" value="4.W3C规定，setTimeout计时小于4ms统一处理为4ms" style="text;html=1;strokeColor=none;fillColor=none;align=center;verticalAlign=middle;whiteSpace=wrap;rounded=0;" parent="1" vertex="1">
                    <mxGeometry x="1075" y="350" width="290" height="30" as="geometry"/>
                </mxCell>
                <mxCell id="63" value="" style="rounded=0;whiteSpace=wrap;html=1;" parent="1" vertex="1">
                    <mxGeometry x="1070" y="400" width="650" height="60" as="geometry"/>
                </mxCell>
                <mxCell id="64" value="1.如果异步线程有回调函数，当异步线程的状态变化的时候，会将该事件放入事件队列中等待js引擎线程的处理" style="text;html=1;strokeColor=none;fillColor=none;align=center;verticalAlign=middle;whiteSpace=wrap;rounded=0;" parent="1" vertex="1">
                    <mxGeometry x="1070" y="430" width="600" height="30" as="geometry"/>
                </mxCell>
                <mxCell id="65" value="1.当XMLHTTPRequest在连接后通过浏览器开一个新的线程" style="text;html=1;strokeColor=none;fillColor=none;align=center;verticalAlign=middle;whiteSpace=wrap;rounded=0;" parent="1" vertex="1">
                    <mxGeometry x="1070" y="400" width="330" height="30" as="geometry"/>
                </mxCell>
                <mxCell id="76" style="edgeStyle=none;html=1;exitX=1;exitY=0.5;exitDx=0;exitDy=0;entryX=0.5;entryY=0;entryDx=0;entryDy=0;" edge="1" parent="1" source="68" target="69">
                    <mxGeometry relative="1" as="geometry"/>
                </mxCell>
                <mxCell id="68" value="&lt;span&gt;宏任务（从事件队列中取）&lt;/span&gt;" style="ellipse;whiteSpace=wrap;html=1;aspect=fixed;" vertex="1" parent="1">
                    <mxGeometry x="285" y="605" width="80" height="80" as="geometry"/>
                </mxCell>
                <mxCell id="77" style="edgeStyle=none;html=1;exitX=0.5;exitY=1;exitDx=0;exitDy=0;entryX=1;entryY=0.5;entryDx=0;entryDy=0;" edge="1" parent="1" source="69" target="73">
                    <mxGeometry relative="1" as="geometry"/>
                </mxCell>
                <mxCell id="69" value="微任务依次执行" style="ellipse;whiteSpace=wrap;html=1;aspect=fixed;" vertex="1" parent="1">
                    <mxGeometry x="440" y="715" width="80" height="80" as="geometry"/>
                </mxCell>
                <mxCell id="70" value="遇到异步任务放入事件队列&lt;br&gt;遇到宏任务放入微任务队列" style="text;html=1;strokeColor=none;fillColor=none;align=center;verticalAlign=middle;whiteSpace=wrap;rounded=0;" vertex="1" parent="1">
                    <mxGeometry x="350" y="585" width="165" height="30" as="geometry"/>
                </mxCell>
                <mxCell id="78" style="edgeStyle=none;html=1;exitX=0.5;exitY=0;exitDx=0;exitDy=0;entryX=0.5;entryY=1;entryDx=0;entryDy=0;" edge="1" parent="1" source="73" target="68">
                    <mxGeometry relative="1" as="geometry"/>
                </mxCell>
                <mxCell id="73" value="GUI线程执行渲染" style="ellipse;whiteSpace=wrap;html=1;aspect=fixed;" vertex="1" parent="1">
                    <mxGeometry x="289" y="825" width="80" height="80" as="geometry"/>
                </mxCell>
                <mxCell id="81" value="eventLoop" style="text;html=1;strokeColor=none;fillColor=none;align=center;verticalAlign=middle;whiteSpace=wrap;rounded=0;" vertex="1" parent="1">
                    <mxGeometry x="365" y="740" width="60" height="30" as="geometry"/>
                </mxCell>
                <mxCell id="82" value="通信&lt;br&gt;browser进程&amp;nbsp; &amp;amp;&amp;amp;&amp;nbsp; render进程" style="rounded=1;whiteSpace=wrap;html=1;" vertex="1" parent="1">
                    <mxGeometry x="1480" y="530" width="165" height="60" as="geometry"/>
                </mxCell>
                <mxCell id="86" style="edgeStyle=none;html=1;exitX=1;exitY=0.25;exitDx=0;exitDy=0;entryX=0;entryY=0.25;entryDx=0;entryDy=0;" edge="1" parent="1" source="83" target="88">
                    <mxGeometry relative="1" as="geometry">
                        <mxPoint x="1390" y="690" as="targetPoint"/>
                    </mxGeometry>
                </mxCell>
                <mxCell id="83" value="browser进程" style="rounded=1;whiteSpace=wrap;html=1;" vertex="1" parent="1">
                    <mxGeometry x="1100" y="660" width="120" height="60" as="geometry"/>
                </mxCell>
                <mxCell id="85" value="收到用户请求，下载网络资源" style="text;html=1;align=center;verticalAlign=middle;resizable=0;points=[];autosize=1;strokeColor=none;fillColor=none;" vertex="1" parent="1">
                    <mxGeometry x="1075" y="740" width="170" height="20" as="geometry"/>
                </mxCell>
                <mxCell id="87" value="通过renderHost下发任务" style="text;html=1;align=center;verticalAlign=middle;resizable=0;points=[];autosize=1;strokeColor=none;fillColor=none;" vertex="1" parent="1">
                    <mxGeometry x="1220" y="645" width="150" height="20" as="geometry"/>
                </mxCell>
                <mxCell id="91" value="" style="edgeStyle=none;html=1;entryX=0.001;entryY=0.335;entryDx=0;entryDy=0;entryPerimeter=0;exitX=1;exitY=0.25;exitDx=0;exitDy=0;" edge="1" parent="1" source="88" target="90">
                    <mxGeometry relative="1" as="geometry">
                        <Array as="points"/>
                    </mxGeometry>
                </mxCell>
                <mxCell id="99" style="edgeStyle=none;html=1;exitX=0;exitY=0.75;exitDx=0;exitDy=0;entryX=1;entryY=0.75;entryDx=0;entryDy=0;" edge="1" parent="1" source="88" target="83">
                    <mxGeometry relative="1" as="geometry"/>
                </mxCell>
                <mxCell id="88" value="render进程" style="rounded=1;whiteSpace=wrap;html=1;" vertex="1" parent="1">
                    <mxGeometry x="1610" y="660" width="120" height="60" as="geometry"/>
                </mxCell>
                <mxCell id="89" value="render接口接收任务" style="text;html=1;strokeColor=none;fillColor=none;align=center;verticalAlign=middle;whiteSpace=wrap;rounded=0;" vertex="1" parent="1">
                    <mxGeometry x="1480" y="640" width="110" height="30" as="geometry"/>
                </mxCell>
                <mxCell id="97" style="edgeStyle=none;html=1;exitX=0;exitY=0.75;exitDx=0;exitDy=0;entryX=1;entryY=0.75;entryDx=0;entryDy=0;" edge="1" parent="1" source="90" target="88">
                    <mxGeometry relative="1" as="geometry"/>
                </mxCell>
                <mxCell id="90" value="render线程" style="whiteSpace=wrap;html=1;rounded=1;" vertex="1" parent="1">
                    <mxGeometry x="1850" y="660" width="120" height="60" as="geometry"/>
                </mxCell>
                <mxCell id="92" value="简单解释任务后下发" style="text;html=1;align=center;verticalAlign=middle;resizable=0;points=[];autosize=1;strokeColor=none;fillColor=none;" vertex="1" parent="1">
                    <mxGeometry x="1730" y="645" width="120" height="20" as="geometry"/>
                </mxCell>
                <mxCell id="103" value="" style="edgeStyle=none;html=1;" edge="1" parent="1" source="95" target="102">
                    <mxGeometry relative="1" as="geometry"/>
                </mxCell>
                <mxCell id="95" value="解析HTML、CSS生成DOM树、render树&lt;br&gt;通过browser获取资源，通过GPU线程协助渲染" style="text;html=1;strokeColor=none;fillColor=none;align=center;verticalAlign=middle;whiteSpace=wrap;rounded=0;" vertex="1" parent="1">
                    <mxGeometry x="1850" y="730" width="270" height="30" as="geometry"/>
                </mxCell>
                <mxCell id="96" value="js执行过程可能造成回流/重绘" style="text;html=1;strokeColor=none;fillColor=none;align=center;verticalAlign=middle;whiteSpace=wrap;rounded=0;" vertex="1" parent="1">
                    <mxGeometry x="1850" y="770" width="270" height="30" as="geometry"/>
                </mxCell>
                <mxCell id="98" value="提交渲染结果（布局）" style="text;html=1;strokeColor=none;fillColor=none;align=center;verticalAlign=middle;whiteSpace=wrap;rounded=0;" vertex="1" parent="1">
                    <mxGeometry x="1740" y="715" width="90" height="30" as="geometry"/>
                </mxCell>
                <mxCell id="100" value="提交渲染结果" style="text;html=1;align=center;verticalAlign=middle;resizable=0;points=[];autosize=1;strokeColor=none;fillColor=none;" vertex="1" parent="1">
                    <mxGeometry x="1500" y="710" width="90" height="20" as="geometry"/>
                </mxCell>
                <mxCell id="101" value="绘制页面" style="text;html=1;strokeColor=none;fillColor=none;align=center;verticalAlign=middle;whiteSpace=wrap;rounded=0;" vertex="1" parent="1">
                    <mxGeometry x="1241" y="705" width="60" height="30" as="geometry"/>
                </mxCell>
                <mxCell id="102" value="涉及到渲染层、图形层、合成层、隐式合成层、层叠加、层爆炸" style="text;html=1;strokeColor=none;fillColor=none;align=center;verticalAlign=middle;whiteSpace=wrap;rounded=0;" vertex="1" parent="1">
                    <mxGeometry x="2200" y="730" width="270" height="30" as="geometry"/>
                </mxCell>
                <mxCell id="105" value="多进程优劣" style="text;html=1;align=center;verticalAlign=middle;resizable=0;points=[];autosize=1;strokeColor=none;fillColor=none;" vertex="1" parent="1">
                    <mxGeometry x="435" y="-30" width="80" height="20" as="geometry"/>
                </mxCell>
                <mxCell id="106" value="1.&amp;nbsp; 不会因为一个tab页面进程崩溃导致全浏览器崩溃影响别的页面&lt;br&gt;&lt;div style=&quot;text-align: left&quot;&gt;&lt;span&gt;2.不会因为插件进程崩溃导致浏览器、页面的崩溃&lt;/span&gt;&lt;/div&gt;&lt;div style=&quot;text-align: left&quot;&gt;&lt;span&gt;3.可以创建隔离的沙箱环境和其他进程互不影响&lt;/span&gt;&lt;/div&gt;" style="text;html=1;strokeColor=none;fillColor=none;align=center;verticalAlign=middle;whiteSpace=wrap;rounded=0;" vertex="1" parent="1">
                    <mxGeometry x="265" y="-190" width="355" height="30" as="geometry"/>
                </mxCell>
                <mxCell id="108" value="优" style="text;html=1;strokeColor=none;fillColor=none;align=center;verticalAlign=middle;whiteSpace=wrap;rounded=0;" vertex="1" parent="1">
                    <mxGeometry x="255" y="-230" width="60" height="30" as="geometry"/>
                </mxCell>
                <mxCell id="109" value="缺" style="text;html=1;strokeColor=none;fillColor=none;align=center;verticalAlign=middle;whiteSpace=wrap;rounded=0;" vertex="1" parent="1">
                    <mxGeometry x="255" y="-150" width="60" height="30" as="geometry"/>
                </mxCell>
                <mxCell id="111" value="1. 内存消耗大，以空间换时间的概念" style="text;html=1;strokeColor=none;fillColor=none;align=center;verticalAlign=middle;whiteSpace=wrap;rounded=0;" vertex="1" parent="1">
                    <mxGeometry x="265" y="-120" width="225" height="30" as="geometry"/>
                </mxCell>
            </root>
        </mxGraphModel>
    </diagram>
</mxfile>